<svg xmlns="http://www.w3.org/2000/svg" viewBox="0 0 48 48"><defs><linearGradient id="g" gradientUnits="userSpaceOnUse" x1="0" y1="0" x2="0" y2="48"><stop offset="0" stop-color="#6050FF"/><stop offset="1" stop-color="#3A2FC4"/></linearGradient></defs><path d="M46.10 24.00 L46.04 31.15 L45.86 34.08 L45.55 36.29 L45.12 38.09 L44.57 39.63 L43.88 40.94 L43.05 42.08 L42.08 43.05 L40.94 43.88 L39.63 44.57 L38.09 45.12 L36.29 45.55 L34.08 45.86 L31.15 46.04 L24.00 46.10 L16.85 46.04 L13.92 45.86 L11.71 45.55 L9.91 45.12 L8.37 44.57 L7.06 43.88 L5.92 43.05 L4.95 42.08 L4.12 40.94 L3.43 39.63 L2.88 38.09 L2.45 36.29 L2.14 34.08 L1.96 31.15 L1.90 24.00 L1.96 16.85 L2.14 13.92 L2.45 11.71 L2.88 9.91 L3.43 8.37 L4.12 7.06 L4.95 5.92 L5.92 4.95 L7.06 4.12 L8.37 3.43 L9.91 2.88 L11.71 2.45 L13.92 2.14 L16.85 1.96 L24.00 1.90 L31.15 1.96 L34.08 2.14 L36.29 2.45 L38.09 2.88 L39.63 3.43 L40.94 4.12 L42.08 4.95 L43.05 5.92 L43.88 7.06 L44.57 8.37 L45.12 9.91 L45.55 11.71 L45.86 13.92 L46.04 16.85 Z" fill="url(#g)"/><rect x="12.48" y="12.48" width="23.04" height="23.04" rx="2.42" fill="#fff"/><rect x="16.05" y="16.05" width="5.30" height="5.30" rx="1.04" fill="url(#g)"/><rect x="16.05" y="26.65" width="5.30" height="5.30" rx="1.04" fill="url(#g)"/><rect x="26.65" y="26.65" width="5.30" height="5.30" rx="1.04" fill="url(#g)"/><rect x="26.65" y="16.05" width="5.30" height="5.30" rx="1.04" fill="#CDEB5A"/></svg>